<?xml version="1.0" standalone="no"?>
<!DOCTYPE svg PUBLIC "-//W3C//DTD SVG 20010904//EN"
 "http://www.w3.org/TR/2001/REC-SVG-20010904/DTD/svg10.dtd">
<svg version="1.0" xmlns="http://www.w3.org/2000/svg"
 width="900.000000pt" height="900.000000pt" viewBox="0 0 900.000000 900.000000"
 preserveAspectRatio="xMidYMid meet">

<g transform="translate(0.000000,900.000000) scale(0.100000,-0.100000)"
fill="#000000" stroke="none">
<path d="M4265 8994 c-978 -63 -1857 -401 -2595 -999 -932 -756 -1513 -1828
-1646 -3040 -25 -222 -25 -698 0 -920 76 -692 287 -1315 641 -1894 730 -1193
1982 -1982 3373 -2125 208 -22 726 -22 934 0 2114 217 3795 1898 4012 4012 11
104 16 252 16 467 0 215 -5 363 -16 467 -122 1187 -715 2280 -1644 3033 -678
550 -1495 888 -2370 980 -140 15 -582 27 -705 19z m-257 -2201 l2 -1143 215 0
215 0 2 228 3 227 465 0 465 0 3 -227 2 -228 458 -2 457 -3 0 -235 0 -235
-227 -3 -228 -2 -2 -1373 -3 -1372 -227 -3 -228 -2 -2 -228 -3 -227 -222 -3
-223 -2 0 -218 c0 -156 -3 -221 -12 -230 -9 -9 -74 -12 -230 -12 l-218 0 0
-219 c0 -173 -3 -221 -14 -230 -9 -8 -81 -11 -237 -9 l-224 3 0 470 0 470 222
3 223 2 2 223 3 222 228 3 227 2 0 1595 0 1595 -215 0 -215 0 -2 -227 -3 -228
-227 -3 -228 -2 0 -905 0 -905 228 -2 227 -3 3 -229 c2 -160 -1 -233 -9 -242
-9 -11 -57 -14 -230 -14 l-219 0 -2 -222 -3 -223 -465 0 -465 0 -3 223 -2 222
-218 0 c-156 0 -221 3 -230 12 -9 9 -12 74 -12 233 0 159 3 224 12 233 9 9 74
12 230 12 l218 0 2 2058 3 2057 228 3 227 2 0 224 c0 122 3 226 7 230 4 3 110
5 237 4 l231 -3 3 -1142z"/>
</g>
</svg>
